<svg width="26" height="27" viewBox="0 0 26 27" fill="none" xmlns="http://www.w3.org/2000/svg">
<path d="M4.596 0.835998C5.052 0.835998 5.592 0.835998 6.216 0.835998C6.864 0.811998 7.512 0.799998 8.16 0.799998C8.808 0.775999 9.348 0.763999 9.78 0.763999C14.748 0.763999 18.564 1.832 21.228 3.968C23.916 6.104 25.26 9.224 25.26 13.328C25.26 15.56 24.876 17.492 24.108 19.124C23.34 20.732 22.272 22.064 20.904 23.12C19.536 24.152 17.928 24.92 16.08 25.424C14.256 25.904 12.276 26.144 10.14 26.144C9.228 26.144 8.232 26.108 7.152 26.036C6.096 25.988 5.208 25.964 4.488 25.964C4.176 25.964 3.756 25.976 3.228 26C2.724 26 2.208 26 1.68 26C1.176 26.024 0.744 26.036 0.384 26.036C0.36 25.796 0.36 25.556 0.384 25.316C1.2 25.244 1.788 25.172 2.148 25.1C2.508 25.028 2.724 24.86 2.796 24.596C2.892 24.308 2.94 23.852 2.94 23.228V3.896C2.94 3.176 2.88 2.66 2.76 2.348C2.664 2.036 2.436 1.832 2.076 1.736C1.716 1.616 1.128 1.532 0.312 1.484C0.288 1.244 0.288 1.004 0.312 0.763999C0.912 0.763999 1.608 0.775999 2.4 0.799998C3.192 0.823998 3.924 0.835998 4.596 0.835998ZM5.82 1.988V24.632C6.588 24.776 7.356 24.884 8.124 24.956C8.916 25.028 9.672 25.064 10.392 25.064C14.304 25.064 17.244 24.068 19.212 22.076C21.18 20.084 22.164 17.348 22.164 13.868C22.164 10.148 21.06 7.22 18.852 5.084C16.644 2.924 13.428 1.844 9.204 1.844C8.556 1.844 7.896 1.868 7.224 1.916C6.576 1.94 6.108 1.964 5.82 1.988Z" fill="black"/>
</svg>

